<svg width="23" height="24" viewBox="0 0 23 24" fill="none" xmlns="http://www.w3.org/2000/svg">
<mask id="path-1-inside-1" fill="white">
<path fill-rule="evenodd" clip-rule="evenodd" d="M20.7922 7.83692L15.9307 3.07712L11.6511 7.44813L6.46371 2.37288L1.88382 7.05426L7.06942 12.1277L2.18559 17.1159L7.04708 21.8757L11.9326 16.8858L16.4735 21.3284L21.0533 16.647L16.5143 12.2062L20.7922 7.83692Z"/>
</mask>
<path fill-rule="evenodd" clip-rule="evenodd" d="M20.7922 7.83692L15.9307 3.07712L11.6511 7.44813L6.46371 2.37288L1.88382 7.05426L7.06942 12.1277L2.18559 17.1159L7.04708 21.8757L11.9326 16.8858L16.4735 21.3284L21.0533 16.647L16.5143 12.2062L20.7922 7.83692Z" fill="#C4C4C4"/>
<path d="M15.9307 3.07712L16.6303 2.36258L15.9158 1.66298L15.2162 2.37752L15.9307 3.07712ZM20.7922 7.83692L21.5067 8.53651L22.2063 7.82197L21.4918 7.12238L20.7922 7.83692ZM11.6511 7.44813L10.9518 8.16292L11.6663 8.86201L12.3657 8.14773L11.6511 7.44813ZM6.46371 2.37288L7.16305 1.65809L6.44823 0.958732L5.7489 1.67356L6.46371 2.37288ZM1.88382 7.05426L1.16901 6.35494L0.469713 7.06974L1.18448 7.76905L1.88382 7.05426ZM7.06942 12.1277L7.78396 12.8273L8.48381 12.1125L7.76876 11.4129L7.06942 12.1277ZM2.18559 17.1159L1.47105 16.4163L0.771453 17.1309L1.48599 17.8305L2.18559 17.1159ZM7.04708 21.8757L6.34749 22.5903L7.06203 23.2898L7.76162 22.5753L7.04708 21.8757ZM11.9326 16.8858L12.632 16.171L11.9174 15.4719L11.2181 16.1862L11.9326 16.8858ZM16.4735 21.3284L15.7741 22.0432L16.4889 22.7426L17.1883 22.0277L16.4735 21.3284ZM21.0533 16.647L21.7682 17.3463L22.4674 16.6316L21.7527 15.9322L21.0533 16.647ZM16.5143 12.2062L15.7998 11.5066L15.1 12.2214L15.815 12.921L16.5143 12.2062ZM15.2311 3.79166L20.0926 8.55146L21.4918 7.12238L16.6303 2.36258L15.2311 3.79166ZM12.3657 8.14773L16.6453 3.77671L15.2162 2.37752L10.9366 6.74854L12.3657 8.14773ZM5.76437 3.08767L10.9518 8.16292L12.3505 6.73334L7.16305 1.65809L5.76437 3.08767ZM2.59863 7.75358L7.17852 3.0722L5.7489 1.67356L1.16901 6.35494L2.59863 7.75358ZM7.76876 11.4129L2.58316 6.33947L1.18448 7.76905L6.37009 12.8425L7.76876 11.4129ZM2.90013 17.8155L7.78396 12.8273L6.35488 11.4281L1.47105 16.4163L2.90013 17.8155ZM7.74668 21.1612L2.88518 16.4014L1.48599 17.8305L6.34749 22.5903L7.74668 21.1612ZM11.2181 16.1862L6.33254 21.1761L7.76162 22.5753L12.6472 17.5854L11.2181 16.1862ZM17.1728 20.6136L12.632 16.171L11.2333 17.6006L15.7741 22.0432L17.1728 20.6136ZM20.3385 15.9477L15.7586 20.6291L17.1883 22.0277L21.7682 17.3463L20.3385 15.9477ZM15.815 12.921L20.354 17.3618L21.7527 15.9322L17.2137 11.4914L15.815 12.921ZM20.0777 7.13733L15.7998 11.5066L17.2289 12.9058L21.5067 8.53651L20.0777 7.13733Z" fill="#9D9D9D" mask="url(#path-1-inside-1)"/>
</svg>
