<svg width="19" height="19" viewBox="0 0 19 19" fill="none" xmlns="http://www.w3.org/2000/svg">
<path fill-rule="evenodd" clip-rule="evenodd" d="M9.67698 1.85544C11.4134 3.45622 11.9523 5.96598 11.2135 8.12567L17.9064 14.2958C18.7607 15.0834 18.8527 16.4476 18.1118 17.3427C17.371 18.2379 16.0778 18.3251 15.2235 17.5375L8.49095 11.3308C6.58355 12.3166 4.22162 12.0663 2.5226 10.5C0.262031 8.41599 0.0310362 4.79141 2.00666 2.40428C3.98229 0.017151 8 0.309436 9.67698 1.85544ZM5.99982 9.98048C8.20906 9.99126 10.0087 8.21788 10.0194 6.01952C10.0301 3.82116 8.2479 2.0303 6.03867 2.01952C3.82943 2.00874 2.0298 3.78212 2.01907 5.98048C2.00835 8.17884 3.79059 9.9697 5.99982 9.98048Z" fill="#9D9D9D"/>
</svg>
