<svg width="29" height="29" viewBox="0 0 29 29" fill="none" xmlns="http://www.w3.org/2000/svg">
<mask id="path-1-inside-1" fill="white">
<path fill-rule="evenodd" clip-rule="evenodd" d="M23.7922 9.83692L18.9307 5.07712L14.6511 9.44813L9.46371 4.37288L4.88382 9.05426L10.0694 14.1277L5.18559 19.1159L10.0471 23.8757L14.9326 18.8858L19.4735 23.3284L24.0533 18.647L19.5143 14.2062L23.7922 9.83692Z"/>
</mask>
<path d="M18.9307 5.07712L19.6303 4.36258L18.9158 3.66298L18.2162 4.37752L18.9307 5.07712ZM23.7922 9.83692L24.5067 10.5365L25.2063 9.82197L24.4918 9.12238L23.7922 9.83692ZM14.6511 9.44813L13.9518 10.1629L14.6663 10.862L15.3657 10.1477L14.6511 9.44813ZM9.46371 4.37288L10.163 3.65809L9.44823 2.95873L8.7489 3.67356L9.46371 4.37288ZM4.88382 9.05426L4.16901 8.35494L3.46971 9.06974L4.18448 9.76905L4.88382 9.05426ZM10.0694 14.1277L10.784 14.8273L11.4838 14.1125L10.7688 13.4129L10.0694 14.1277ZM5.18559 19.1159L4.47105 18.4163L3.77145 19.1309L4.48599 19.8305L5.18559 19.1159ZM10.0471 23.8757L9.34749 24.5903L10.062 25.2898L10.7616 24.5753L10.0471 23.8757ZM14.9326 18.8858L15.632 18.171L14.9174 17.4719L14.2181 18.1862L14.9326 18.8858ZM19.4735 23.3284L18.7741 24.0432L19.4889 24.7426L20.1883 24.0277L19.4735 23.3284ZM24.0533 18.647L24.7682 19.3463L25.4674 18.6316L24.7527 17.9322L24.0533 18.647ZM19.5143 14.2062L18.7998 13.5066L18.1 14.2214L18.815 14.921L19.5143 14.2062ZM18.2311 5.79166L23.0926 10.5515L24.4918 9.12238L19.6303 4.36258L18.2311 5.79166ZM15.3657 10.1477L19.6453 5.77671L18.2162 4.37752L13.9366 8.74854L15.3657 10.1477ZM8.76437 5.08767L13.9518 10.1629L15.3505 8.73334L10.163 3.65809L8.76437 5.08767ZM5.59863 9.75358L10.1785 5.0722L8.7489 3.67356L4.16901 8.35494L5.59863 9.75358ZM10.7688 13.4129L5.58316 8.33947L4.18448 9.76905L9.37009 14.8425L10.7688 13.4129ZM5.90013 19.8155L10.784 14.8273L9.35488 13.4281L4.47105 18.4163L5.90013 19.8155ZM10.7467 23.1612L5.88518 18.4014L4.48599 19.8305L9.34749 24.5903L10.7467 23.1612ZM14.2181 18.1862L9.33254 23.1761L10.7616 24.5753L15.6472 19.5854L14.2181 18.1862ZM20.1728 22.6136L15.632 18.171L14.2333 19.6006L18.7741 24.0432L20.1728 22.6136ZM23.3385 17.9477L18.7586 22.6291L20.1883 24.0277L24.7682 19.3463L23.3385 17.9477ZM18.815 14.921L23.354 19.3618L24.7527 17.9322L20.2137 13.4914L18.815 14.921ZM23.0777 9.13733L18.7998 13.5066L20.2289 14.9058L24.5067 10.5365L23.0777 9.13733Z" fill="#9D9D9D" mask="url(#path-1-inside-1)"/>
</svg>
